<?xml version="1.0" standalone="no"?><!DOCTYPE svg PUBLIC "-//W3C//DTD SVG 1.1//EN" "http://www.w3.org/Graphics/SVG/1.1/DTD/svg11.dtd"><svg t="1629968864223" class="icon" viewBox="0 0 1000 1000" version="1.1" xmlns="http://www.w3.org/2000/svg" p-id="3539" width="48" height="48" xmlns:xlink="http://www.w3.org/1999/xlink"><defs><style type="text/css"></style></defs><path d="M223.6046 49.4375c7.826-1.3801 15.8049-1.9087 23.7449-2.0796 173.3306 0.02 346.6622 0 519.9918 0.02 15.1444-0.02 30.7234-0.4357 45.3001 4.3101 25.2009 7.335 46.9431 25.6166 58.5707 49.1157 7.7131 14.4822 10.4563 31.024 10.5303 47.3009 0 223.7063 0.058 447.4326-0.019 671.158 0.1689 23.4981-7.6961 47.148-23.1782 64.9759-18.3973 22.2529-47.2279 34.5975-75.9466 34.2957-175.2204 0.0749-350.4608-0.019-525.7021 0.036-14.5757 0.0769-29.5312-0.073-43.4453-4.8787-29.7391-9.1308-54.0716-33.8381-62.9009-63.6528-5.2946-15.9922-4.4432-33.1026-4.4801-49.7183-0.019-212.9886-0.019-425.9952-0.019-639.0008-0.058-15.8622-0.3028-32.2152 5.1037-47.3579C161.4032 81.4818 190.2728 56.111 223.6046 49.4375zM213.9997 94.1112c-18.4902 10.1901-29.4932 31.1939-29.1524 52.0847-0.1889 57.4151-0.02 114.8122-0.076 172.2262 219.4242 0 438.8475 0 658.2707 0-0.058-57.3961 0.1129-114.7922-0.076-172.1703 0.2289-18.6593-8.2797-37.4896-23.536-48.5111-11.1189-8.4503-25.2229-11.779-39.0052-11.6451-177.0352-0.058-354.0725 0-531.1097-0.038C237.1409 85.9817 224.5879 87.7215 213.9997 94.1112zM184.7713 357.1409c0 83.8831 0 167.7653 0 251.6674 219.4242-0.019 438.8475 0 658.2707 0 0-83.9021 0.021-167.7842 0-251.6674C623.6188 357.1219 404.1955 357.1219 184.7713 357.1409zM184.7903 647.509c0.019 57.2442-0.0939 114.4894 0.057 171.7366-0.1139 15.0848 4.9528 30.3404 15.3132 41.4949 11.7605 13.233 29.6651 19.5667 47.134 19.0381 178.3414 0 356.6818 0.0759 535.0222-0.037 21.0246 0.5466 42.1621-10.36 52.5405-28.8694 7.2404-11.6641 8.4326-25.7316 8.2068-39.1345-0.06-54.7299 0-109.4808-0.021-164.2287C623.6188 647.489 404.1955 647.509 184.7903 647.509zM414.5929 164.0798c8.4886-1.1922 17.6967 4.1022 20.2871 12.4206 2.4564 6.6165 1.0014 14.6131 5.6524 20.3792 4.5181 5.2744 12.1373 5.1805 18.5092 5.3504 37.2253-0.056 74.4516 0.057 111.6968-0.056 6.9955 0.038 15.8259-1.3421 18.6231-8.828 2.7233-8.3753 1.3052-19.0761 9.2251-24.9551 9.7928-9.1698 27.9622-3.2518 30.4386 9.9253 2.7632 15.9182-2.7582 32.9527-13.3675 44.9945-10.7382 12.1378-27.2426 17.5831-43.1425 17.6011-35.3165 0.1889-70.614-0.018-105.9305 0.0949-14.179 0.2258-29.1344-0.2089-41.7264-7.5239-18.1115-9.7934-27.9802-31.0999-26.7899-51.2343C398.4102 173.2485 405.6326 165.195 414.5929 164.0798zM412.5322 474.2964c9.377-2.6852 20.381 3.4776 22.6875 13.0452 1.8338 6.0689 1.0973 12.9682 4.651 18.4515 3.8386 5.5382 11.2119 5.956 17.337 6.1618 36.5267 0.06 73.0725-0.055 109.5982 0.06 6.8626-0.2838 15.1623 0.3578 20.2491-5.1985 6.1631-7.6408 2.3245-19.247 9.2631-26.601 6.9196-8.3743 21.0996-8.81 28.209-0.4727 4.3472 4.1762 5.3106 10.4349 5.3316 16.203-0.3598 17.9398-9.0183 36.2774-24.5983 45.8239-10.2255 6.6175-22.6086 8.868-34.6159 8.923-35.2975 0.1149-70.596-0.018-105.8925 0.058-14.0091 0.2089-28.8316-0.6246-41.0638-8.2044-17.337-9.9822-26.5811-30.6092-25.6557-50.175C398.3522 484.0698 404.2145 476.0163 412.5322 474.2964zM408.6757 746.6658c7.789-3.9513 18.0175-1.7398 23.3112 5.2554 5.8043 6.9003 3.214 16.9225 7.5442 24.4454 4.0824 6.4077 12.591 6.4666 19.3597 6.6545 36.6397 0.019 73.2813 0 109.902 0 6.4289-0.2268 14.139-0.1699 18.6031-5.5982 5.1237-6.7095 2.6073-16.0881 6.8806-23.2143 5.6364-10.7007 21.932-12.7783 29.9859-3.7055 4.8409 4.482 5.7483 11.4203 5.5575 17.697-0.7165 16.9965-8.7504 34.1409-23.1602 43.6894-10.5103 7.2981-23.517 9.8103-36.127 9.8103-37.1144 0.059-74.2257 0-111.3391 0.039-12.2882 0.056-25.0131-1.7198-35.6563-8.2624-17.4499-10.0962-26.733-31.0989-25.4108-50.8185C398.5421 755.9295 402.6065 749.6517 408.6757 746.6658z" p-id="3540" fill="#2884ff"></path></svg>