<?xml version="1.0" standalone="no"?><!DOCTYPE svg PUBLIC "-//W3C//DTD SVG 1.1//EN" "http://www.w3.org/Graphics/SVG/1.1/DTD/svg11.dtd"><svg t="1629876991406" class="icon" viewBox="0 0 1024 1024" version="1.1" xmlns="http://www.w3.org/2000/svg" p-id="7859" xmlns:xlink="http://www.w3.org/1999/xlink" width="64" height="64"><defs><style type="text/css"></style></defs><path d="M511.99448 156.859l99.138 200.864a82.16 82.16 0 0 0 61.854 44.936l221.642 32.205-160.39 156.343a82.124 82.124 0 0 0-23.626 72.709l37.856 220.779-198.247-104.226c-11.964-6.293-25.101-9.437-38.228-9.437s-26.264 3.144-38.228 9.437L275.51048 884.701l37.866-220.779a82.146 82.146 0 0 0-23.626-72.719l-160.4-156.339 221.662-32.205a82.154 82.154 0 0 0 61.854-44.941l99.128-200.859m0-133.885a41.057 41.057 0 0 0-36.833 22.894L339.19948 321.36 35.16648 365.535a41.078 41.078 0 0 0-33.163 27.958 41.093 41.093 0 0 0 10.399 42.098l220.007 214.441-51.936 302.81a41.07 41.07 0 0 0 16.336 40.173 41.15 41.15 0 0 0 24.158 7.837 41.066 41.066 0 0 0 19.104-4.708l271.923-142.961 271.923 142.961a41.139 41.139 0 0 0 19.113 4.713 41.115 41.115 0 0 0 24.147-7.842 41.082 41.082 0 0 0 16.326-40.173l-51.926-302.81 219.997-214.441a41.116 41.116 0 0 0 10.409-42.098 41.077 41.077 0 0 0-33.173-27.958L684.79848 321.36 548.81748 45.858a41.06 41.06 0 0 0-36.823-22.884z" fill="#2884ff" p-id="7860"></path></svg>