<?xml version="1.0" standalone="no"?><!DOCTYPE svg PUBLIC "-//W3C//DTD SVG 1.1//EN" "http://www.w3.org/Graphics/SVG/1.1/DTD/svg11.dtd"><svg t="1631522062691" class="icon" viewBox="0 0 1024 1024" version="1.1" xmlns="http://www.w3.org/2000/svg" p-id="3905" width="32" height="32" xmlns:xlink="http://www.w3.org/1999/xlink"><defs><style type="text/css"></style></defs><path d="M494.933333 549.930667l-426.666666-213.589334c-17.066667-8.533333-25.6-21.333333-25.6-38.442666 0-17.066667 8.533333-29.909333 21.333333-38.442667l426.666667-213.589333c12.8-4.266667 25.6-4.266667 38.4 0l426.666666 213.589333c17.066667 8.533333 25.6 21.333333 25.6 38.4 0 17.109333-8.533333 29.952-25.6 38.485333l-426.666666 213.589334c-4.266667 4.266667-8.533333 4.266667-17.066667 4.266666s-12.8 0-17.066667-4.266666z m349.866667-252.032L512 131.285333 179.2 297.898667l332.8 166.570666 332.8-166.570666z m132.266667 410.026666c8.533333 21.376 0 47.018667-17.066667 55.552l-426.666667 213.589334c-8.533333 4.266667-12.8 4.266667-21.333333 4.266666s-12.8 0-17.066667-4.266666l-426.666666-213.589334c-21.333333-8.533333-29.866667-34.133333-17.066667-55.509333 8.533333-21.333333 34.133333-29.909333 55.466667-17.066667l409.6 205.013334 409.6-205.056c12.8-12.8 38.4-4.266667 51.2 17.066666z m-17.066667-157.994666c17.066667-8.533333 25.6-34.176 17.066667-55.552-12.8-21.333333-38.4-29.866667-51.2-17.066667l-409.6 205.013333-409.6-205.013333c-21.333333-12.8-46.933333-4.266667-55.466667 17.066667-12.8 21.333333-4.266667 46.976 17.066667 55.552l426.666666 213.546666c4.266667 4.266667 8.533333 4.266667 17.066667 4.266667s12.8 0 21.333333-4.266667l426.666667-213.546666z" p-id="3906" fill="#2884ff"></path></svg>