<svg t="1626749433325" class="icon" viewBox="0 0 1024 1024" version="1.1"
    xmlns="http://www.w3.org/2000/svg" p-id="5160" width="32" height="32">
    <path d="M978.773333 122.026667l-11.946666 32.853333a170.666667 170.666667 0 0 1-39.68 62.72l-184.32 184.32 87.466666 436.48a110.08 110.08 0 0 1 0 16.213333 80.64 80.64 0 0 1-24.32 58.026667l-7.253333 7.253333a18.773333 18.773333 0 0 1-14.506667 5.973334 20.48 20.48 0 0 1-17.493333-9.813334L589.653333 554.666667l-177.066666 147.2 18.773333 221.866666a42.666667 42.666667 0 0 1-11.946667 29.013334l-22.613333 22.613333a20.48 20.48 0 0 1-32.853333-5.546667l-103.253334-206.506666-206.506666-103.253334a20.48 20.48 0 0 1-5.546667-32.853333l22.613333-22.613333a42.666667 42.666667 0 0 1 29.013334-11.946667l218.88 18.346667L469.333333 434.346667 107.946667 256a20.48 20.48 0 0 1-9.813334-17.493333 18.773333 18.773333 0 0 1 5.973334-14.506667l7.253333-7.253333A80.64 80.64 0 0 1 170.666667 192a110.08 110.08 0 0 1 16.213333 0l435.2 89.173333 184.32-184.32a170.666667 170.666667 0 0 1 62.72-39.68l32.853333-11.946666a42.666667 42.666667 0 0 1 44.8 9.813333l22.186667 22.186667a42.666667 42.666667 0 0 1 9.813333 44.8z" p-id="5161" fill="#2884ff"></path>
</svg>