<svg t="1626749503490" class="icon" viewBox="0 0 1024 1024" version="1.1"
    xmlns="http://www.w3.org/2000/svg" p-id="6154" width="32" height="32">
    <path d="M978.773333 122.026667l-11.946666 32.853333a170.666667 170.666667 0 0 1-39.68 62.72l-184.32 184.32 45.653333 228.266667-394.666667-394.666667 228.266667 45.653333 184.32-184.32a170.666667 170.666667 0 0 1 62.72-39.68l32.853333-11.946666a42.666667 42.666667 0 0 1 44.8 9.813333l22.186667 22.186667a42.666667 42.666667 0 0 1 9.813333 44.8zM144.213333 91.733333a20.48 20.48 0 0 0-29.866666 0l-22.613334 22.613334a20.48 20.48 0 0 0 0 29.866666l52.053334 52.48a77.226667 77.226667 0 0 0-32.426667 19.626667l-7.253333 7.253333a18.773333 18.773333 0 0 0-5.973334 14.506667 20.48 20.48 0 0 0 9.813334 17.92l187.733333 93.013333 133.12 133.12-109.653333 128-218.88-18.346666a42.666667 42.666667 0 0 0-29.013334 11.946666l-22.613333 22.613334a20.48 20.48 0 0 0 5.546667 32.853333l206.506666 103.253333 103.253334 206.506667a20.48 20.48 0 0 0 32.853333 5.546667l22.613333-22.613334a42.666667 42.666667 0 0 0 11.946667-29.013333l-18.773333-221.866667 128-107.093333 133.546666 133.546667 93.866667 188.586666a20.48 20.48 0 0 0 17.493333 9.813334 18.773333 18.773333 0 0 0 14.506667-5.973334l7.253333-7.253333a77.226667 77.226667 0 0 0 19.626667-32.426667l52.48 52.053334a20.48 20.48 0 0 0 29.866667 0l22.613333-22.613334a20.48 20.48 0 0 0 0-29.866666z" p-id="6155" fill="#2884ff"></path>
</svg>