<svg t="1626749559261" class="icon" viewBox="0 0 1024 1024" version="1.1"
    xmlns="http://www.w3.org/2000/svg" p-id="7851" width="32" height="32">
    <path d="M512 896c-213.333333 0-384-170.666667-384-384s170.666667-384 384-384 384 170.666667 384 384-170.666667 384-384 384z m0-682.666667c-166.4 0-298.666667 132.266667-298.666667 298.666667s132.266667 298.666667 298.666667 298.666667 298.666667-132.266667 298.666667-298.666667-132.266667-298.666667-298.666667-298.666667z" p-id="7852" fill="#2884ff"></path>
    <path d="M469.333333 128c0-21.333333 17.066667-42.666667 42.666667-42.666667s42.666667 21.333333 42.666667 42.666667v170.666667c0 21.333333-17.066667 42.666667-42.666667 42.666666s-42.666667-21.333333-42.666667-42.666666V128z m0 597.333333c0-21.333333 17.066667-42.666667 42.666667-42.666666s42.666667 21.333333 42.666667 42.666666v170.666667c0 21.333333-17.066667 42.666667-42.666667 42.666667s-42.666667-21.333333-42.666667-42.666667v-170.666667z m426.666667-256c21.333333 0 42.666667 17.066667 42.666667 42.666667s-21.333333 42.666667-42.666667 42.666667h-170.666667c-21.333333 0-42.666667-17.066667-42.666666-42.666667s21.333333-42.666667 42.666666-42.666667h170.666667zM298.666667 469.333333c21.333333 0 42.666667 17.066667 42.666666 42.666667s-21.333333 42.666667-42.666666 42.666667H128c-21.333333 0-42.666667-17.066667-42.666667-42.666667s21.333333-42.666667 42.666667-42.666667h170.666667z" p-id="7853" fill="#2884ff"></path>
    <path d="M512 512m-85.333333 0a85.333333 85.333333 0 1 0 170.666666 0 85.333333 85.333333 0 1 0-170.666666 0Z" p-id="7854" fill="#2884ff"></path>
</svg>