<svg t="1626751220305" class="icon" viewBox="0 0 1024 1024" version="1.1"
    xmlns="http://www.w3.org/2000/svg" p-id="23523" width="32" height="32">
    <path d="M926.3 337.9c-22.6-53.3-54.8-101.2-96-142.3-41.1-41.1-89-73.4-142.3-96-55.2-23.4-113.9-35.2-174.3-35.2S394.6 76.2 339.3 99.6c-53.3 22.6-101.2 54.8-142.3 96-41.1 41.1-73.4 89-96 142.3-23.4 55.2-35.2 113.9-35.2 174.3 0 60.4 11.8 119.1 35.2 174.3 22.6 53.3 54.8 101.2 96 142.3 41.1 41.1 89 73.4 142.3 96 55.2 23.4 113.9 35.2 174.3 35.2s119.1-11.8 174.3-35.2c53.3-22.6 101.2-54.8 142.3-96 41.1-41.1 73.4-89 96-142.3 23.4-55.2 35.2-113.9 35.2-174.3 0.1-60.4-11.8-119.1-35.1-174.3zM513.7 879.1c-202.3 0-366.9-164.6-366.9-366.9 0-86.2 29.9-165.5 79.7-228.1l515.3 515.3c-62.7 49.9-142 79.7-228.1 79.7z m284.9-136L282.8 227.2c63.1-51.2 143.5-81.9 230.9-81.9 202.3 0 366.9 164.6 366.9 366.9 0 87.4-30.7 167.8-82 230.9z" p-id="23524" fill="#2884ff"></path>
</svg>